<?xml version="1.0" encoding="UTF-8"?>
<svg id="Ilustración_de_conjunto_de_iconos" data-name="Ilustración de conjunto de iconos" xmlns="http://www.w3.org/2000/svg" viewBox="0 0 2883.85 2286.31">
  <defs>
    <style>
      .cls-1 {
        stroke-linejoin: round;
      }

      .cls-1, .cls-2 {
        fill: none;
        stroke: #24468b;
        stroke-linecap: round;
        stroke-width: 30px;
      }

      .cls-3 {
        fill: #050009;
        opacity: .2;
      }

      .cls-4 {
        fill: #eecb47;
      }

      .cls-5 {
        font-family: Asap-Bold, Asap;
        font-size: 120px;
        font-weight: 700;
      }

      .cls-5, .cls-6 {
        fill: #24468b;
      }

      .cls-7 {
        fill: #d83832;
      }

      .cls-2 {
        stroke-miterlimit: 10;
      }

      .cls-8 {
        fill: #fefbed;
      }
    </style>
  </defs>
  <g id="icono_20" data-name="icono 20">
    <polygon class="cls-4" points="2840.18 2263.17 2840.18 1962.48 2639.29 1962.48 2640.18 2061.6 2640.18 2263.17 2840.18 2263.17"/>
    <polygon class="cls-7" points="2759.07 2182.06 2759.07 1881.37 2558.18 1881.37 2559.07 1980.48 2559.07 2182.06 2759.07 2182.06"/>
    <polygon class="cls-1" points="2797.3 2217.97 2797.3 1917.29 2596.41 1917.29 2597.3 2016.4 2597.3 2217.97 2797.3 2217.97"/>
    <line class="cls-1" x1="2642.66" y1="1983.72" x2="2751.05" y2="1983.72"/>
    <circle class="cls-6" cx="2652.63" cy="2039.41" r="16.22"/>
    <circle class="cls-6" cx="2696.85" cy="2039.41" r="16.22"/>
    <circle class="cls-6" cx="2738.96" cy="2039.41" r="16.22"/>
    <circle class="cls-6" cx="2652.63" cy="2085.11" r="16.22"/>
    <circle class="cls-6" cx="2696.85" cy="2085.11" r="16.22"/>
    <circle class="cls-6" cx="2738.96" cy="2085.11" r="16.22"/>
    <circle class="cls-6" cx="2652.63" cy="2124.61" r="16.22"/>
    <circle class="cls-6" cx="2696.85" cy="2124.61" r="16.22"/>
    <circle class="cls-6" cx="2738.96" cy="2124.61" r="16.22"/>
    <circle class="cls-6" cx="2652.63" cy="2164.12" r="16.22"/>
    <circle class="cls-6" cx="2696.85" cy="2164.12" r="16.22"/>
    <circle class="cls-6" cx="2738.96" cy="2164.12" r="16.22"/>
  </g>
  <g id="icono_19" data-name="icono 19">
    <rect class="cls-7" x="1910.17" y="1903.77" width="255.89" height="255.89"/>
    <rect class="cls-4" x="1998.31" y="1982.72" width="255.89" height="255.89"/>
    <line class="cls-1" x1="2146.19" y1="1926.91" x2="2146.19" y2="1901.29"/>
    <line class="cls-1" x1="2007.72" y1="1926.91" x2="2007.72" y2="1901.29"/>
    <rect class="cls-1" x="1950.64" y="1939.61" width="255.89" height="255.89"/>
    <text id="_31" data-name="31" class="cls-5" transform="translate(2017.99 2105.11)"><tspan x="0" y="0">31</tspan></text>
  </g>
  <g id="icono_18" data-name="icono 18">
    <rect class="cls-7" x="1290.62" y="1871.07" width="255.89" height="255.89"/>
    <rect class="cls-4" x="1378.76" y="1950.02" width="255.89" height="255.89"/>
    <line class="cls-1" x1="1459.03" y1="1894.21" x2="1459.03" y2="1868.59"/>
    <rect class="cls-1" x="1331.09" y="1906.91" width="255.89" height="255.89"/>
    <line class="cls-2" x1="1459.08" y1="2218.34" x2="1406.34" y2="2271.31"/>
    <line class="cls-2" x1="1459.69" y1="2218.45" x2="1512.66" y2="2271.19"/>
    <line class="cls-2" x1="1458.79" y1="2162.79" x2="1459.27" y2="2215.76"/>
  </g>
  <g id="icono_17" data-name="icono 17">
    <g>
      <polygon class="cls-7" points="653.92 2130.82 954.6 2130.82 954.6 1929.93 855.49 1930.82 653.92 1930.82 653.92 2130.82"/>
      <polygon class="cls-4" points="728.94 2207.04 1029.63 2207.04 1029.63 2006.16 930.52 2007.04 728.94 2007.04 728.94 2207.04"/>
      <polygon class="cls-1" points="692.29 2170.39 992.98 2170.39 992.98 1969.5 893.87 1970.39 692.29 1970.39 692.29 2170.39"/>
    </g>
    <circle class="cls-1" cx="786.51" cy="2069.38" r="75.24"/>
    <circle class="cls-6" cx="933.52" cy="2015.16" r="16.22"/>
    <circle class="cls-6" cx="933.52" cy="2059.41" r="16.22"/>
    <line class="cls-1" x1="913.8" y1="1945.61" x2="953.24" y2="1945.61"/>
  </g>
  <g id="icono_16" data-name="icono 16">
    <polygon class="cls-7" points="33.92 2117.73 334.6 2117.73 334.6 1916.84 235.49 1917.73 33.92 1917.73 33.92 2117.73"/>
    <polygon class="cls-4" points="108.94 2193.95 409.63 2193.95 409.63 1993.06 310.52 1993.95 108.94 1993.95 108.94 2193.95"/>
    <polygon class="cls-1" points="72.29 2157.3 372.98 2157.3 372.98 1956.41 273.87 1957.3 72.29 1957.3 72.29 2157.3"/>
    <line class="cls-1" x1="72.29" y1="2106.94" x2="372.98" y2="2106.94"/>
    <line class="cls-2" x1="178.71" y1="2222.05" x2="266.55" y2="2221.86"/>
    <line class="cls-2" x1="221.75" y1="2160.3" x2="222.31" y2="2220.52"/>
  </g>
  <g id="icono_15" data-name="icono 15">
    <rect class="cls-7" x="2519.66" y="1217.29" width="268.61" height="359.11"/>
    <rect class="cls-4" x="2605.43" y="1303.05" width="268.61" height="359.11"/>
    <rect class="cls-1" x="2624.61" y="1312.3" width="144.49" height="220.44"/>
    <rect class="cls-1" x="2562.55" y="1260.17" width="268.61" height="359.11"/>
    <line class="cls-1" x1="2677.13" y1="1577.55" x2="2716.58" y2="1577.55"/>
  </g>
  <g id="icono_14" data-name="icono 14">
    <rect class="cls-7" x="1943" y="1236.59" width="194.9" height="326.8"/>
    <rect class="cls-4" x="2018.98" y="1312.3" width="194.9" height="326.8"/>
    <rect class="cls-1" x="2029.77" y="1323.14" width="104.83" height="200.61"/>
    <rect class="cls-1" x="1984.74" y="1275.7" width="194.9" height="326.8"/>
    <line class="cls-1" x1="2062.46" y1="1562.78" x2="2101.91" y2="1562.78"/>
  </g>
  <g id="icono_13" data-name="icono 13">
    <g>
      <polygon class="cls-8" points="1529.61 1551.5 1527.61 1250.81 1326.72 1250.81 1329.61 1349.92 1329.61 1551.5 1529.61 1551.5"/>
      <polygon class="cls-3" points="1604.83 1642.49 1604.83 1341.8 1403.94 1341.8 1404.83 1440.91 1404.83 1642.49 1604.83 1642.49"/>
      <polygon class="cls-1" points="1568.17 1593.25 1568.17 1341.8 1518.3 1292.56 1367.29 1292.56 1368.17 1391.67 1368.17 1593.25 1568.17 1593.25"/>
    </g>
    <line class="cls-1" x1="1412.58" y1="1413.39" x2="1520.96" y2="1413.39"/>
    <line class="cls-1" x1="1412.58" y1="1464.45" x2="1520.96" y2="1464.45"/>
    <line class="cls-1" x1="1412.58" y1="1515.5" x2="1520.96" y2="1515.5"/>
    <polyline class="cls-1" points="1510.3 1292.92 1510.3 1347.39 1568.17 1347.39"/>
  </g>
  <g id="icono_12" data-name="icono 12">
    <g>
      <polygon class="cls-7" points="653.92 1500.6 954.6 1500.6 954.6 1299.71 855.49 1300.6 653.92 1300.6 653.92 1500.6"/>
      <polygon class="cls-4" points="728.94 1576.82 1029.63 1576.82 1029.63 1375.93 930.52 1376.82 728.94 1376.82 728.94 1576.82"/>
      <polyline class="cls-1" points="935.68 1540.17 860.44 1589.61 860.44 1540.17 692.29 1540.17 692.29 1340.17 893.87 1340.17 992.98 1339.28 992.98 1540.17 935.68 1540.17"/>
    </g>
    <line class="cls-1" x1="767.46" y1="1413.39" x2="917.8" y2="1413.39"/>
    <line class="cls-1" x1="767.46" y1="1464.45" x2="917.8" y2="1464.45"/>
  </g>
  <g id="icono_11" data-name="icono 11">
    <g>
      <polygon class="cls-7" points="33.92 1500.6 334.6 1500.6 334.6 1299.71 235.49 1300.6 33.92 1300.6 33.92 1500.6"/>
      <polygon class="cls-4" points="108.94 1576.82 409.63 1576.82 409.63 1375.93 310.52 1376.82 108.94 1376.82 108.94 1576.82"/>
      <polygon class="cls-1" points="72.29 1540.17 372.98 1540.17 372.98 1339.28 273.87 1340.17 72.29 1340.17 72.29 1540.17"/>
    </g>
    <polyline class="cls-1" points="78.3 1534.06 194.26 1459.39 238.3 1488.72 303.63 1423.39 367.63 1534.06"/>
    <circle class="cls-6" cx="142.63" cy="1407.17" r="16.22"/>
  </g>
  <g id="icono_10" data-name="icono 10">
    <circle class="cls-7" cx="2664.18" cy="743.14" r="98.78"/>
    <path class="cls-7" d="M2762.95,743.14c0,54.55-44.63,188.06-99.19,188.06s-98.37-133.51-98.37-188.06"/>
    <circle class="cls-4" cx="2732.38" cy="803.94" r="98.78"/>
    <path class="cls-4" d="M2831.16,803.94c0,54.55-44.63,188.06-99.19,188.06s-98.37-133.51-98.37-188.06"/>
    <circle class="cls-1" cx="2696.85" cy="776.74" r="98.78"/>
    <path class="cls-1" d="M2795.63,776.74c0,54.55-44.63,188.06-99.19,188.06s-98.37-133.51-98.37-188.06"/>
    <circle class="cls-1" cx="2696.85" cy="776.74" r="42.88"/>
  </g>
  <g id="icono_09" data-name="icono 09">
    <rect class="cls-7" x="1946.32" y="689.38" width="186.27" height="248.42" rx="11" ry="11"/>
    <path class="cls-7" d="M2184.96,862.94h-42.37v-123.47h42.37c5,0,9.09,4.09,9.09,9.09v105.3c0,5-4.09,9.09-9.09,9.09Z"/>
    <rect class="cls-4" x="2018.98" y="762.51" width="186.27" height="248.42" rx="11" ry="11"/>
    <path class="cls-4" d="M2247.63,936.07h-42.37v-123.47h42.37c5,0,9.09,4.09,9.09,9.09v105.3c0,5-4.09,9.09-9.09,9.09Z"/>
    <rect class="cls-1" x="1982.48" y="724.38" width="186.27" height="248.42" rx="11" ry="11"/>
    <path class="cls-1" d="M2211.12,897.93h-42.37v-123.47h42.37c5,0,9.09,4.09,9.09,9.09v105.3c0,5-4.09,9.09-9.09,9.09Z"/>
    <path class="cls-1" d="M2055.25,604.34c21.57,21.79,6.61,34.81,0,42.52-6.61,7.71-10.91,22.75,2.52,37.51"/>
    <path class="cls-1" d="M2099.93,604.34c21.57,21.79,6.61,34.81,0,42.52-6.61,7.71-10.91,22.75,2.52,37.51"/>
  </g>
  <g id="icono_08" data-name="icono 08">
    <polygon class="cls-7" points="1273.92 873.93 1574.6 873.93 1574.6 673.04 1475.49 673.93 1273.92 673.93 1273.92 873.93"/>
    <polygon class="cls-4" points="1348.94 950.16 1649.63 950.16 1649.63 749.27 1550.52 750.16 1348.94 750.16 1348.94 950.16"/>
    <polygon class="cls-1" points="1312.29 913.5 1612.98 913.5 1612.98 712.61 1513.87 713.5 1312.29 713.5 1312.29 913.5"/>
    <polyline class="cls-1" points="1312.29 713.5 1462.06 812.49 1612.98 712.61"/>
  </g>
  <g id="icono_07" data-name="icono 07">
    <circle class="cls-7" cx="766.75" cy="774.49" r="75.24"/>
    <path class="cls-7" d="M691.51,924.95c0-41.55,33.68-75.24,75.24-75.24s75.24,33.68,75.24,75.24"/>
    <circle class="cls-4" cx="953.75" cy="774.49" r="75.24"/>
    <path class="cls-4" d="M878.51,924.95c0-41.55,33.68-75.24,75.24-75.24s75.24,33.68,75.24,75.24"/>
    <circle class="cls-2" cx="748.68" cy="754.49" r="75.24"/>
    <path class="cls-2" d="M673.44,904.95c0-41.55,33.68-75.24,75.24-75.24s75.24,33.68,75.24,75.24"/>
    <circle class="cls-2" cx="935.68" cy="754.49" r="75.24"/>
    <path class="cls-2" d="M860.44,904.95c0-41.55,33.68-75.24,75.24-75.24s75.24,33.68,75.24,75.24"/>
  </g>
  <g id="icono_06" data-name="icono 06">
    <g>
      <g>
        <path class="cls-7" d="M128.51,713.6c0-41.42,33.58-75,75-75s75,33.58,75,75"/>
        <path class="cls-7" d="M168.81,779.91c0-41.42,33.58-75,75-75s75,33.58,75,75"/>
        <path class="cls-7" d="M88.22,779.91c0-41.42,33.58-75,75-75s75,33.58,75,75"/>
        <path class="cls-7" d="M128.51,779.91c0-41.42,33.58-75,75-75s75,33.58,75,75"/>
        <path class="cls-7" d="M150,779.91c0-41.42-33.58-75-75-75S0,738.48,0,779.91s33.58,75,75,75h255.26c41.42,0,75-33.58,75-75s-33.58-75-75-75-75,33.58-75,75"/>
      </g>
      <g>
        <path class="cls-4" d="M179.34,775.68c0-41.42,33.58-75,75-75s75,33.58,75,75"/>
        <path class="cls-4" d="M219.63,841.99c0-41.42,33.58-75,75-75s75,33.58,75,75"/>
        <path class="cls-4" d="M139.04,841.99c0-41.42,33.58-75,75-75s75,33.58,75,75"/>
        <path class="cls-4" d="M179.34,841.99c0-41.42,33.58-75,75-75s75,33.58,75,75"/>
        <path class="cls-4" d="M200.82,841.99c0-41.42-33.58-75-75-75s-75,33.58-75,75,33.58,75,75,75h255.26c41.42,0,75-33.58,75-75s-33.58-75-75-75-75,33.58-75,75"/>
      </g>
      <path class="cls-2" d="M147.63,746.75c0-41.42,33.58-75,75-75s75,33.58,75,75"/>
      <path class="cls-2" d="M256.96,888.06h92.41c41.42,0,75-33.58,75-75s-33.58-75-75-75-75,33.58-75,75"/>
      <path class="cls-2" d="M169.12,813.06c0-41.42-33.58-75-75-75s-75,33.58-75,75,33.58,75,75,75h89.96"/>
    </g>
    <line class="cls-2" x1="221.48" y1="853.06" x2="159.51" y2="915.3"/>
    <line class="cls-2" x1="222.2" y1="853.19" x2="284.44" y2="915.17"/>
    <line class="cls-2" x1="222.2" y1="990.19" x2="221.64" y2="853.06"/>
  </g>
  <g id="icono_05" data-name="icono 05">
    <polygon class="cls-7" points="2513.83 304.9 2814.52 304.9 2814.52 79.21 2739.3 79.21 2715.41 104.9 2513.83 104.9 2513.83 304.9"/>
    <polygon class="cls-4" points="2583.16 379.9 2883.85 379.9 2883.85 154.21 2808.63 154.21 2784.74 179.9 2583.16 179.9 2583.16 379.9"/>
    <polygon class="cls-1" points="2546.05 342.95 2846.74 342.95 2846.74 117.25 2771.52 117.25 2747.63 142.95 2546.05 142.95 2546.05 342.95"/>
  </g>
  <g id="icono_04" data-name="icono 04">
    <path class="cls-7" d="M1959.8,193.67h-33c-6.05,0-11-4.95-11-11v-33c0-6.05,4.95-11,11-11h33s11.65-28.13,11.65-28.13l-23.33-23.33c-4.28-4.28-4.28-11.28,0-15.56l23.33-23.33c4.28-4.28,11.28-4.28,15.56,0l23.33,23.33,28.13-11.65V27.01c0-6.05,4.95-11,11-11h33c6.05,0,11,4.95,11,11v33s28.13,11.65,28.13,11.65l23.33-23.33c4.28-4.28,11.28-4.28,15.56,0l23.33,23.33c4.28,4.28,4.28,11.28,0,15.56l-23.33,23.33,11.65,28.13h33c6.05,0,11,4.95,11,11v33c0,6.05-4.95,11-11,11h-33s-11.65,28.13-11.65,28.13l23.33,23.33c4.28,4.28,4.28,11.28,0,15.56l-23.33,23.33c-4.28,4.28-11.28,4.28-15.56,0l-23.33-23.33-28.13,11.65v33c0,6.05-4.95,11-11,11h-33c-6.05,0-11-4.95-11-11v-33s-28.13-11.65-28.13-11.65l-23.33,23.33c-4.28,4.28-11.28,4.28-15.56,0l-23.33-23.33c-4.28-4.28-4.28-11.28,0-15.56l23.33-23.33-11.65-28.13Z"/>
    <path class="cls-4" d="M2000.24,243.78h-33c-6.05,0-11-4.95-11-11v-33c0-6.05,4.95-11,11-11h33s11.65-28.13,11.65-28.13l-23.33-23.33c-4.28-4.28-4.28-11.28,0-15.56l23.33-23.33c4.28-4.28,11.28-4.28,15.56,0l23.33,23.33,28.13-11.65v-33c0-6.05,4.95-11,11-11h33c6.05,0,11,4.95,11,11v33s28.13,11.65,28.13,11.65l23.33-23.33c4.28-4.28,11.28-4.28,15.56,0l23.33,23.33c4.28,4.28,4.28,11.28,0,15.56l-23.33,23.33,11.65,28.13h33c6.05,0,11,4.95,11,11v33c0,6.05-4.95,11-11,11h-33s-11.65,28.13-11.65,28.13l23.33,23.33c4.28,4.28,4.28,11.28,0,15.56l-23.33,23.33c-4.28,4.28-11.28,4.28-15.56,0l-23.33-23.33-28.13,11.65v33c0,6.05-4.95,11-11,11h-33c-6.05,0-11-4.95-11-11v-33s-28.13-11.65-28.13-11.65l-23.33,23.33c-4.28,4.28-11.28,4.28-15.56,0l-23.33-23.33c-4.28-4.28-4.28-11.28,0-15.56l23.33-23.33-11.65-28.13Z"/>
    <circle class="cls-1" cx="2082.19" cy="193.06" r="61.33"/>
    <path class="cls-1" d="M1976.02,220.56h-33c-6.05,0-11-4.95-11-11v-33c0-6.05,4.95-11,11-11h33s11.65-28.13,11.65-28.13l-23.33-23.33c-4.28-4.28-4.28-11.28,0-15.56l23.33-23.33c4.28-4.28,11.28-4.28,15.56,0l23.33,23.33,28.13-11.65v-33c0-6.05,4.95-11,11-11h33c6.05,0,11,4.95,11,11v33s28.13,11.65,28.13,11.65l23.33-23.33c4.28-4.28,11.28-4.28,15.56,0l23.33,23.33c4.28,4.28,4.28,11.28,0,15.56l-23.33,23.33,11.65,28.13h33c6.05,0,11,4.95,11,11v33c0,6.05-4.95,11-11,11h-33s-11.65,28.13-11.65,28.13l23.33,23.33c4.28,4.28,4.28,11.28,0,15.56l-23.33,23.33c-4.28,4.28-11.28,4.28-15.56,0l-23.33-23.33-28.13,11.65v33c0,6.05-4.95,11-11,11h-33c-6.05,0-11-4.95-11-11v-33s-28.13-11.65-28.13-11.65l-23.33,23.33c-4.28,4.28-11.28,4.28-15.56,0l-23.33-23.33c-4.28-4.28-4.28-11.28,0-15.56l23.33-23.33-11.65-28.13Z"/>
    <circle class="cls-6" cx="2082.19" cy="193.06" r="16.22"/>
  </g>
  <g id="icono_03" data-name="icono 03">
    <circle class="cls-7" cx="1434.26" cy="155.44" r="122.67"/>
    <circle class="cls-4" cx="1495.3" cy="217.28" r="122.67"/>
    <circle class="cls-1" cx="1462.63" cy="193.06" r="122.67"/>
    <polyline class="cls-1" points="1495.3 160.39 1462.63 193.06 1408.86 139.29"/>
  </g>
  <g id="icono_02" data-name="icono 02">
    <polygon class="cls-7" points="837.13 0 686.92 150.21 730.74 150.12 730.74 300.33 943.34 300.42 943.34 150.12 987.34 150.21 837.13 0"/>
    <polygon class="cls-4" points="870.25 79.25 720.04 229.47 763.86 229.37 763.86 379.58 976.45 379.68 976.45 229.37 1020.46 229.47 870.25 79.25"/>
    <polygon class="cls-1" points="842.31 42.52 692.1 192.73 735.92 192.64 735.92 342.85 948.51 342.95 948.51 192.64 992.52 192.73 842.31 42.52"/>
    <rect class="cls-1" x="805.01" y="155.44" width="75.24" height="75.24" rx="11" ry="11"/>
  </g>
  <g id="icono_01" data-name="icono 01">
    <g>
      <path class="cls-7" d="M128.51,93.6c0-41.42,33.58-75,75-75s75,33.58,75,75"/>
      <path class="cls-7" d="M168.81,159.91c0-41.42,33.58-75,75-75s75,33.58,75,75"/>
      <path class="cls-7" d="M88.22,159.91c0-41.42,33.58-75,75-75s75,33.58,75,75"/>
      <path class="cls-7" d="M128.51,159.91c0-41.42,33.58-75,75-75s75,33.58,75,75"/>
      <path class="cls-7" d="M150,159.91c0-41.42-33.58-75-75-75S0,118.48,0,159.91s33.58,75,75,75h255.26c41.42,0,75-33.58,75-75s-33.58-75-75-75-75,33.58-75,75"/>
    </g>
    <g>
      <path class="cls-4" d="M179.34,155.68c0-41.42,33.58-75,75-75s75,33.58,75,75"/>
      <path class="cls-4" d="M219.63,221.99c0-41.42,33.58-75,75-75s75,33.58,75,75"/>
      <path class="cls-4" d="M139.04,221.99c0-41.42,33.58-75,75-75s75,33.58,75,75"/>
      <path class="cls-4" d="M179.34,221.99c0-41.42,33.58-75,75-75s75,33.58,75,75"/>
      <path class="cls-4" d="M200.82,221.99c0-41.42-33.58-75-75-75s-75,33.58-75,75,33.58,75,75,75h255.26c41.42,0,75-33.58,75-75s-33.58-75-75-75-75,33.58-75,75"/>
    </g>
    <path class="cls-2" d="M147.63,126.75c0-41.42,33.58-75,75-75s75,33.58,75,75"/>
    <path class="cls-2" d="M169.12,193.06c0-41.42-33.58-75-75-75S19.12,151.64,19.12,193.06s33.58,75,75,75h255.26c41.42,0,75-33.58,75-75s-33.58-75-75-75-75,33.58-75,75"/>
    <line class="cls-2" x1="222.47" y1="405.19" x2="284.44" y2="342.95"/>
    <line class="cls-2" x1="221.75" y1="405.06" x2="159.51" y2="343.08"/>
    <line class="cls-2" x1="221.75" y1="268.06" x2="222.31" y2="405.19"/>
  </g>
</svg>