<?xml version="1.0" encoding="UTF-8"?>
<svg id="Ilustración_de_conjunto_de_iconos" data-name="Ilustración de conjunto de iconos" xmlns="http://www.w3.org/2000/svg" viewBox="0 0 600 600">
  <defs>
    <style>
      .cls-1 {
        fill: none;
        stroke: #24468b;
        stroke-linecap: round;
        stroke-linejoin: round;
        stroke-width: 30px;
      }

      .cls-2 {
        fill: #050009;
        opacity: .2;
      }

      .cls-3 {
        fill: #24468b;
      }

      .cls-4 {
        fill: #fefbed;
      }
    </style>
  </defs>
  <g id="icono_04" data-name="icono 04">
    <path class="cls-4" d="M177.61,300.62h-33c-6.05,0-11-4.95-11-11v-33c0-6.05,4.95-11,11-11h33s11.65-28.13,11.65-28.13l-23.33-23.33c-4.28-4.28-4.28-11.28,0-15.56l23.33-23.33c4.28-4.28,11.28-4.28,15.56,0l23.33,23.33,28.13-11.65v-33c0-6.05,4.95-11,11-11h33c6.05,0,11,4.95,11,11v33s28.13,11.65,28.13,11.65l23.33-23.33c4.28-4.28,11.28-4.28,15.56,0l23.33,23.33c4.28,4.28,4.28,11.28,0,15.56l-23.33,23.33,11.65,28.13h33c6.05,0,11,4.95,11,11v33c0,6.05-4.95,11-11,11h-33s-11.65,28.13-11.65,28.13l23.33,23.33c4.28,4.28,4.28,11.28,0,15.56l-23.33,23.33c-4.28,4.28-11.28,4.28-15.56,0l-23.33-23.33-28.13,11.65v33c0,6.05-4.95,11-11,11h-33c-6.05,0-11-4.95-11-11v-33s-28.13-11.65-28.13-11.65l-23.33,23.33c-4.28,4.28-11.28,4.28-15.56,0l-23.33-23.33c-4.28-4.28-4.28-11.28,0-15.56l23.33-23.33-11.65-28.13Z"/>
    <path class="cls-2" d="M218.06,350.72h-33c-6.05,0-11-4.95-11-11v-33c0-6.05,4.95-11,11-11h33s11.65-28.13,11.65-28.13l-23.33-23.33c-4.28-4.28-4.28-11.28,0-15.56l23.33-23.33c4.28-4.28,11.28-4.28,15.56,0l23.33,23.33,28.13-11.65v-33c0-6.05,4.95-11,11-11h33c6.05,0,11,4.95,11,11v33s28.13,11.65,28.13,11.65l23.33-23.33c4.28-4.28,11.28-4.28,15.56,0l23.33,23.33c4.28,4.28,4.28,11.28,0,15.56l-23.33,23.33,11.65,28.13h33c6.05,0,11,4.95,11,11v33c0,6.05-4.95,11-11,11h-33s-11.65,28.13-11.65,28.13l23.33,23.33c4.28,4.28,4.28,11.28,0,15.56l-23.33,23.33c-4.28,4.28-11.28,4.28-15.56,0l-23.33-23.33-28.13,11.65v33c0,6.05-4.95,11-11,11h-33c-6.05,0-11-4.95-11-11v-33s-28.13-11.65-28.13-11.65l-23.33,23.33c-4.28,4.28-11.28,4.28-15.56,0l-23.33-23.33c-4.28-4.28-4.28-11.28,0-15.56l23.33-23.33-11.65-28.13Z"/>
    <circle class="cls-1" cx="300" cy="300" r="61.33"/>
    <path class="cls-1" d="M193.83,327.5h-33c-6.05,0-11-4.95-11-11v-33c0-6.05,4.95-11,11-11h33s11.65-28.13,11.65-28.13l-23.33-23.33c-4.28-4.28-4.28-11.28,0-15.56l23.33-23.33c4.28-4.28,11.28-4.28,15.56,0l23.33,23.33,28.13-11.65v-33c0-6.05,4.95-11,11-11h33c6.05,0,11,4.95,11,11v33s28.13,11.65,28.13,11.65l23.33-23.33c4.28-4.28,11.28-4.28,15.56,0l23.33,23.33c4.28,4.28,4.28,11.28,0,15.56l-23.33,23.33,11.65,28.13h33c6.05,0,11,4.95,11,11v33c0,6.05-4.95,11-11,11h-33s-11.65,28.13-11.65,28.13l23.33,23.33c4.28,4.28,4.28,11.28,0,15.56l-23.33,23.33c-4.28,4.28-11.28,4.28-15.56,0l-23.33-23.33-28.13,11.65v33c0,6.05-4.95,11-11,11h-33c-6.05,0-11-4.95-11-11v-33s-28.13-11.65-28.13-11.65l-23.33,23.33c-4.28,4.28-11.28,4.28-15.56,0l-23.33-23.33c-4.28-4.28-4.28-11.28,0-15.56l23.33-23.33-11.65-28.13Z"/>
    <circle class="cls-3" cx="300" cy="300" r="16.22"/>
  </g>
</svg>