<?xml version="1.0" encoding="UTF-8"?>
<svg id="Ilustración_de_conjunto_de_iconos" data-name="Ilustración de conjunto de iconos" xmlns="http://www.w3.org/2000/svg" viewBox="0 0 600 600">
  <defs>
    <style>
      .cls-1 {
        fill: none;
        stroke: #24468b;
        stroke-linecap: round;
        stroke-linejoin: round;
        stroke-width: 30px;
      }

      .cls-2 {
        fill: #24468b;
      }

      .cls-3 {
        opacity: .2;
      }

      .cls-4 {
        fill: #050009;
      }

      .cls-5 {
        fill: #24468b;
      }

      .cls-6 {
        fill: #fefbed;
      }
    </style>
  </defs>
  <g id="icono_20" data-name="icono 20">
    <g class="cls-3">
      <polygon class="cls-4" points="443.33 493.23 443.33 192.54 242.44 192.54 243.33 291.65 243.33 493.23 443.33 493.23"/>
    </g>
    <polygon class="cls-6" points="362.22 412.12 362.22 111.43 161.33 111.43 162.22 210.54 162.22 412.12 362.22 412.12"/>
    <polygon class="cls-1" points="400.44 448.03 400.44 147.34 199.56 147.34 200.44 246.45 200.44 448.03 400.44 448.03"/>
    <line class="cls-1" x1="245.81" y1="213.77" x2="354.19" y2="213.77"/>
    <circle class="cls-5" cx="255.78" cy="354.67" r="16.22"/>
    <circle class="cls-5" cx="342.11" cy="354.67" r="16.22"/>
    <circle class="cls-5" cx="255.78" cy="394.18" r="16.22"/>
    <circle class="cls-5" cx="300" cy="394.18" r="16.22"/>
    <circle class="cls-5" cx="342.11" cy="394.18" r="16.22"/>
    <path class="cls-2" d="M304.2,243.47v6.77c4.47.46,8.31,1.38,11.51,2.76s5.99,3.47,8.37,6.27c1.88,2.13,3.33,4.33,4.36,6.59,1.02,2.26,1.54,4.33,1.54,6.21,0,2.09-.76,3.9-2.29,5.43s-3.38,2.29-5.55,2.29c-4.1,0-6.75-2.22-7.97-6.65-1.38-5.23-4.7-8.7-9.97-10.41v26.09c5.18,1.42,9.31,2.72,12.39,3.89,3.07,1.17,5.82,2.86,8.25,5.08,2.59,2.3,4.59,5.05,5.99,8.25,1.4,3.2,2.1,6.7,2.1,10.51,0,4.77-1.12,9.23-3.36,13.39-2.24,4.16-5.53,7.56-9.88,10.19-4.35,2.63-9.51,4.2-15.49,4.7v15.62c0,2.47-.24,4.27-.72,5.39-.48,1.13-1.54,1.69-3.17,1.69-1.51,0-2.56-.46-3.17-1.38-.61-.92-.91-2.34-.91-4.27v-16.93c-4.89-.54-9.17-1.69-12.83-3.45-3.66-1.76-6.71-3.94-9.16-6.55-2.45-2.61-4.26-5.33-5.43-8.15-1.17-2.82-1.76-5.59-1.76-8.31,0-2.01.78-3.82,2.35-5.43,1.57-1.61,3.52-2.41,5.86-2.41,1.88,0,3.47.44,4.77,1.32,1.3.88,2.2,2.11,2.7,3.7,1.13,3.43,2.11,6.05,2.95,7.87.84,1.82,2.1,3.48,3.79,4.99s3.94,2.66,6.74,3.45v-29.17c-5.6-1.55-10.29-3.27-14.05-5.17-3.76-1.9-6.82-4.61-9.16-8.12-2.34-3.51-3.51-8.03-3.51-13.55,0-7.19,2.29-13.09,6.87-17.69,4.58-4.6,11.2-7.28,19.85-8.03v-6.65c0-3.51,1.32-5.27,3.95-5.27s4.01,1.72,4.01,5.14ZM296.24,286.49v-24.02c-3.51,1.05-6.25,2.43-8.22,4.14-1.97,1.72-2.95,4.31-2.95,7.78s.92,5.8,2.76,7.5c1.84,1.69,4.64,3.23,8.4,4.61ZM304.2,305.12v27.47c4.22-.84,7.48-2.53,9.78-5.08,2.3-2.55,3.45-5.52,3.45-8.91,0-3.64-1.12-6.45-3.36-8.44-2.24-1.99-5.53-3.67-9.88-5.05Z"/>
  </g>
</svg>